PathFileType	4	(X/Y/Z)	Run_500 03
DataRate	CameraRate	NumFrames	NumMarkers	Units	OrigDataRate	OrigDataStartFrame	OrigNumFrames
100	100	4	42	mm	100	11	128
Frame#	Time	RASI			LPSI			RPSI			RTH1			RTH2			RTH3			LTH1			LTH2			LTH3			RTB1			RTB2			RTB3			LTB1			LTB2			LTB3			RCAL			RTOE			RMT5			LCAL			LTOE			LMT5			LACR			RACR			CLAV			C7			RUA1			RUA2			RUA3			RLEL			RMEL			LUA1			LUA2			LUA3			LLEL			LMEL			RFAsuperior			RFAradius			RFAulna			LFAsuperior			LFAradius			LFAulna			LASI			
		X1	Y1	Z1	X2	Y2	Z2	X3	Y3	Z3	X4	Y4	Z4	X5	Y5	Z5	X6	Y6	Z6	X7	Y7	Z7	X8	Y8	Z8	X9	Y9	Z9	X10	Y10	Z10	X11	Y11	Z11	X12	Y12	Z12	X13	Y13	Z13	X14	Y14	Z14	X15	Y15	Z15	X16	Y16	Z16	X17	Y17	Z17	X18	Y18	Z18	X19	Y19	Z19	X20	Y20	Z20	X21	Y21	Z21	X22	Y22	Z22	X23	Y23	Z23	X24	Y24	Z24	X25	Y25	Z25	X26	Y26	Z26	X27	Y27	Z27	X28	Y28	Z28	X29	Y29	Z29	X30	Y30	Z30	X31	Y31	Z31	X32	Y32	Z32	X33	Y33	Z33	X34	Y34	Z34	X35	Y35	Z35	X36	Y36	Z36	X37	Y37	Z37	X38	Y38	Z38	X39	Y39	Z39	X40	Y40	Z40	X41	Y41	Z41	X42	Y42	Z42	

1	0.39	780.936625	1025.893725	-204.913446	613.984616	1097.35263	-374.966326	606.985123	1093.111951	-291.636726	750.400389	891.48108	-130.263763	846.708483	780.662227	-145.952697	821.940169	662.545972	-170.296052	692.897579	896.362675	-511.56088	706.040163	762.494045	-489.258632	575.457568	669.183801	-489.086295	964.64815	457.823864	-226.881981	938.347339	345.613768	-186.21158	1003.48453	261.761632	-243.203881	437.598083	498.888958	-420.032745	351.558887	557.596735	-473.720029	232.782598	513.066103	-390.133612	919.586618	108.634611	-296.949184	1145.39684	135.010365	-260.521578	1115.564519	76.559383	-190.489532	121.684513	643.080139	-352.427959	39.329588	427.081799	-352.147434	-5.543355	473.855656	-416.353597	774.503935	1554.383043	-470.40851	699.6752729999999	1533.368819	-148.021196	802.26337	1506.845702	-274.12289	673.824157	1571.486504	-340.510799	607.743397	1461.933387	-69.766199	532.636042	1399.087711	-114.016605	542.8972	1364.030161	-40.245094	494.575951	1283.200186	-2.172576	480.839474	1263.497922	-76.17925700000001	766.088839	1469.044715	-581.455631	705.791983	1387.241112	-602.300062	772.1027340000001	1365.304431	-646.652008	791.0520749999999	1283.937082	-687.6734	724.488305	1243.227995	-663.9920540000001	507.596782	1206.306442	26.818814	621.219558	1027.023414	31.352596	552.979844	1016.959841	40.587901	870.923709	1217.370756	-614.683341	926.598585	1190.531872	-469.75194	925.951622	1133.397215	-508.881431	790.612256	1006.974986	-447.693012	
2	0.4	778.796755	1019.345548	-202.549249	613.584029	1090.092924	-377.188806	606.00148	1086.609574	-293.528356	744.479059	884.088306	-130.771629	843.458606	775.412536	-144.98928	817.343857	656.279174	-173.078844	698.387168	888.243023	-511.970459	713.994114	755.849865	-489.925564	586.534476	659.064792	-491.448054	955.236538	447.213226	-228.854867	926.498115	335.237652	-189.225223	989.319374	250.124103	-246.362716	450.387276	496.005362	-423.716541	369.200794	562.742136	-476.155872	247.596496	527.905859	-392.727843	900.268156	103.372771	-303.321523	1127.308737	115.673003	-265.692567	1092.344589	60.792201	-194.563364	146.961486	666.905088	-354.102502	50.079969	456.740602	-357.643841	9.605442	507.187979	-422.420309	774.09862	1547.949783	-470.070472	700.470025	1525.610646	-145.906145	802.611235	1500.34043	-272.606611	673.855284	1564.806474	-338.337411	609.964725	1451.740434	-66.05273800000001	535.633545	1386.367313	-109.419877	547.441543	1352.639691	-35.547197	501.434289	1271.17909	3.541009	486.895986	1250.673579	-70.146953	762.885518	1461.753894	-580.942154	700.686269	1381.821119	-601.007418	766.361998	1357.944496	-645.2682610000001	782.45726	1276.674108	-686.796154	714.570439	1238.749183	-662.755411	517.145178	1194.886279	32.303047	636.1899550000001	1019.188911	34.125774	568.307005	1007.068816	45.563899	860.573574	1201.483806	-619.656288	918.305584	1162.382054	-477.50087	913.698833	1108.518359	-521.3924919999999	791.456416	1001.686363	-445.610619	
3	0.41	776.7630339999999	1013.173196	-200.21662	613.144894	1081.927871	-379.348597	604.658756	1079.22217	-295.077941	740.1891419999999	877.210783	-133.135506	841.861412	769.794096	-145.622409	813.249585	648.844642	-174.752614	703.122349	879.965121	-512.868149	722.032961	748.917414	-491.777197	598.69341	647.877705	-494.778248	945.104692	434.406683	-231.80284	912.599429	323.384087	-192.871404	968.965815	236.173177	-252.135911	465.999796	491.965969	-428.687734	390.018367	566.212083	-479.285708	266.444871	539.929882	-396.149625	869.859003	97.382215	-307.954172	1099.629247	95.437422	-275.090527	1060.341631	50.741899	-199.325852	175.16278	686.701956	-355.617263	66.333196	482.292478	-364.588984	31.107066	535.8175220000001	-430.167233	773.155352	1540.674046	-469.817588	701.469366	1517.084122	-143.808493	803.047603	1492.97067	-271.134787	673.9751189999999	1557.020351	-336.03348	612.770156	1439.755562	-62.302944	539.090339	1372.579245	-103.639857	552.981002	1339.762936	-30.202394	509.890945	1257.927122	9.686534	494.262063	1236.494119	-63.79897	759.482764	1453.403336	-580.465741	695.28738	1375.60233	-599.449054	760.137662	1349.687088	-643.934773	773.424545	1268.63371	-685.882399	704.617571	1233.528112	-661.463005	528.53791	1182.223406	37.975534	653.475271	1011.158522	36.857142	586.181991	996.430102	50.562858	849.041929	1184.94164	-625.084528	907.603025	1132.911504	-486.863024	898.9452659999999	1083.254258	-535.265215	791.640187	995.786731	-443.928074	
4	0.42	774.787181	1006.957149	-198.517967	611.945123	1072.792039	-381.106683	602.654619	1070.747735	-296.341543	737.869042	870.0092509999999	-135.88205	840.6544249999999	762.439675	-147.514758	809.7671810000001	640.241806	-175.086385	706.930714	871.49092	-513.95688	730.367936	741.484469	-494.363283	612.299739	635.6520420000001	-498.863318	933.7839729999999	420.783086	-236.46228	895.661599	311.483608	-198.287403	941.51328	221.91803	-261.437038	484.550392	486.910798	-434.169965	413.643689	567.267211	-483.137281	289.016043	548.975906	-400.05412	828.711248	90.59496900000001	-313.09503	1062.085353	79.52087299999999	-284.08674	1019.226963	48.219745	-202.650557	205.936355	702.220551	-357.130335	87.43315200000001	503.404191	-372.68037	58.039348	559.533606	-439.095393	771.739225	1532.790343	-469.393654	702.742329	1508.180853	-141.582678	803.745149	1484.75995	-269.619368	673.986712	1548.39993	-333.480129	616.365962	1426.325897	-58.39097	543.277691	1357.733732	-96.986655	559.5797669999999	1325.690717	-24.370171	519.877919	1243.671703	15.982415	502.886364	1221.249177	-57.305088	755.583457	1444.530191	-579.777438	689.6140339999999	1368.781718	-597.648227	753.530095	1340.762352	-642.43582	764.134202	1260.002195	-685.090245	694.539538	1227.707732	-660.155518	541.913742	1168.780555	43.564109	673.035675	1003.254274	39.385056	606.625627	985.626749	55.268393	836.3322470000001	1168.18114	-630.848448	894.130928	1102.795703	-497.891425	881.634326	1057.953933	-550.109931	790.732082	989.142202	-443.039972	
